<?xml version="1.0" standalone="no"?>
<!DOCTYPE svg PUBLIC "-//W3C//DTD SVG 20010904//EN"
 "http://www.w3.org/TR/2001/REC-SVG-20010904/DTD/svg10.dtd">
<svg version="1.0" xmlns="http://www.w3.org/2000/svg"
 width="640.000000pt" height="599.000000pt" viewBox="0 0 640.000000 599.000000"
 preserveAspectRatio="xMidYMid meet">

<g transform="translate(0.000000,599.000000) scale(0.100000,-0.100000)"
fill="#000000" stroke="none">
<path d="M2740 5650 c-404 -48 -708 -131 -995 -271 -236 -115 -394 -228 -565
-405 -150 -155 -271 -334 -357 -527 -234 -528 -209 -1213 67 -1829 60 -135 83
-172 235 -383 184 -257 267 -408 296 -546 15 -71 6 -428 -16 -609 -9 -74 -31
-236 -50 -360 -19 -124 -35 -229 -35 -233 0 -4 15 -7 34 -7 l33 0 17 107 c71
455 86 594 93 848 5 205 4 225 -16 300 -41 152 -138 319 -360 625 -179 246
-308 590 -368 977 -23 150 -23 491 0 626 17 96 54 248 84 336 8 26 45 109 83
186 134 273 316 484 578 672 84 60 334 196 417 226 408 149 726 208 1120 208
259 0 401 -16 611 -71 628 -162 1098 -583 1289 -1153 65 -194 80 -374 40 -470
-8 -20 -15 -45 -15 -56 0 -29 99 -161 317 -424 375 -452 440 -571 358 -657
-43 -45 -152 -96 -237 -110 -63 -11 -78 -18 -110 -50 -26 -26 -38 -47 -38 -66
0 -50 60 -213 96 -260 53 -69 48 -100 -26 -165 -78 -68 -80 -90 -10 -166 28
-30 50 -58 50 -63 0 -4 -23 -36 -51 -71 -107 -134 -115 -176 -64 -320 85 -237
93 -304 50 -390 -44 -87 -136 -163 -241 -200 -53 -19 -91 -22 -364 -30 -387
-10 -429 -13 -485 -38 -97 -43 -180 -163 -230 -335 -34 -119 -33 -136 5 -136
17 0 32 6 34 13 52 193 78 258 132 324 39 47 89 78 144 87 19 4 188 11 375 16
362 10 382 12 492 69 60 30 153 120 193 187 33 55 35 63 35 149 0 83 -4 102
-55 246 -62 180 -62 194 10 284 83 105 92 121 85 156 -4 18 -28 54 -53 81
l-46 49 47 41 c58 49 77 84 77 141 0 35 -8 55 -41 102 -39 54 -89 180 -89 225
0 25 39 45 118 58 130 23 270 119 292 200 20 75 -15 169 -118 317 -61 88 -138
185 -351 440 -78 93 -162 199 -187 235 l-45 66 16 43 c89 254 -102 784 -404
1122 -237 264 -597 478 -967 574 -207 54 -320 67 -599 70 -143 2 -294 0 -335
-5z"/>
<path d="M3402 5518 c-7 -7 -12 -21 -12 -33 0 -12 5 -26 12 -33 9 -9 8 -12 -5
-12 -9 0 -20 -7 -25 -16 -11 -19 -4 -54 9 -54 5 0 9 -5 9 -12 0 -6 10 -22 22
-35 19 -21 20 -26 8 -48 -12 -23 -12 -28 6 -44 132 -121 204 -181 221 -181 11
0 26 -7 33 -15 7 -8 27 -15 44 -15 24 0 42 -10 71 -40 21 -22 39 -49 40 -61 1
-12 10 -28 20 -35 11 -8 14 -14 8 -14 -7 0 -46 32 -87 70 -71 66 -79 70 -123
70 -44 1 -53 6 -102 51 -35 33 -56 61 -60 82 -5 24 -13 33 -31 35 -22 4 -50
-19 -50 -39 0 -16 32 -39 54 -39 13 0 44 -23 81 -61 58 -59 61 -60 104 -56 42
5 47 2 114 -57 39 -34 74 -73 77 -86 4 -16 14 -26 28 -28 26 -4 40 22 22 42
-9 12 -7 17 9 26 23 12 28 49 9 68 -7 7 -24 12 -38 12 -34 0 -106 72 -102 101
4 25 -24 59 -50 59 -10 0 -29 -11 -42 -25 -13 -14 -30 -25 -37 -25 -8 0 -45
30 -82 68 -62 62 -66 69 -61 102 5 32 2 38 -41 74 -44 36 -45 39 -29 57 12 13
15 28 10 50 -4 22 -2 29 7 27 6 -3 13 -22 15 -44 2 -22 12 -49 24 -61 12 -13
19 -26 15 -29 -3 -4 -2 -15 4 -25 13 -24 55 -25 68 -1 13 25 -12 62 -43 62
-31 0 -43 16 -49 65 -3 22 -7 53 -10 69 -7 41 -40 59 -65 34z m73 -263 c0 -11
-7 -21 -16 -23 -18 -3 -33 23 -23 39 10 17 39 5 39 -16z m423 -327 c8 -8 9
-15 1 -25 -15 -18 -36 -16 -43 3 -12 31 18 46 42 22z"/>
<path d="M2717 5503 c-11 -10 -8 -53 2 -53 6 0 12 -55 14 -122 7 -180 17 -218
63 -218 17 0 23 -6 26 -27 4 -37 51 -45 68 -13 14 25 -2 50 -31 50 -14 0 -19
7 -19 30 0 31 -22 50 -55 47 -17 -2 -21 6 -27 53 -11 98 -8 184 7 204 10 13
11 24 4 37 -10 19 -39 25 -52 12z m98 -349 c0 -10 -8 -20 -18 -22 -22 -4 -35
27 -16 39 20 12 34 5 34 -17z"/>
<path d="M2802 5488 c-16 -16 -15 -33 3 -48 11 -9 15 -33 15 -91 l0 -78 80
-73 c68 -62 80 -78 80 -105 0 -37 22 -63 55 -63 24 0 55 33 55 57 0 22 -43 54
-66 49 -16 -4 -40 12 -103 70 l-81 76 0 69 c0 38 6 78 12 89 22 35 -21 77 -50
48z m256 -407 c-4 -31 -35 -36 -52 -8 -9 14 -7 21 7 32 27 19 49 8 45 -24z"/>
<path d="M2932 5488 c-16 -16 -15 -43 3 -58 8 -7 15 -23 15 -37 0 -13 11 -35
24 -48 14 -14 26 -34 28 -46 4 -30 33 -47 56 -33 39 25 17 74 -33 74 -45 0
-72 63 -40 90 28 23 11 70 -25 70 -9 0 -21 -5 -28 -12z"/>
<path d="M3115 5478 c-30 -16 -45 -39 -45 -69 0 -53 50 -84 106 -66 33 11 41
-9 48 -118 l7 -100 90 -90 c74 -74 89 -94 89 -120 0 -38 16 -55 51 -55 31 0
59 23 59 49 0 26 -32 51 -66 51 -24 0 -46 17 -117 88 l-87 87 0 96 c0 82 -3
98 -20 114 -14 13 -18 25 -13 47 8 39 -13 75 -50 88 -16 5 -30 10 -31 10 -1 0
-10 -6 -21 -12z m63 -40 c18 -18 15 -43 -8 -63 -29 -26 -70 -7 -70 33 0 16 3
32 7 35 11 11 58 8 71 -5z m310 -510 c16 -16 15 -23 -4 -42 -12 -12 -20 -13
-35 -6 -10 6 -19 16 -19 23 0 16 20 37 35 37 6 0 16 -5 23 -12z"/>
<path d="M3592 5478 c-16 -16 -15 -43 3 -58 10 -8 15 -31 15 -65 l0 -53 209
-204 208 -203 5 -208 5 -208 31 -32 c18 -18 32 -43 32 -55 0 -43 62 -52 75
-11 8 25 -11 49 -39 49 -12 0 -34 12 -48 28 -26 27 -27 29 -34 236 l-7 208
-209 206 -208 205 0 52 c0 38 4 55 15 59 31 11 10 66 -25 66 -9 0 -21 -5 -28
-12z"/>
<path d="M2366 5454 c-9 -8 -16 -19 -16 -23 0 -5 -13 -11 -29 -14 -33 -7 -47
-36 -32 -66 6 -11 11 -35 11 -54 0 -23 8 -41 26 -58 23 -21 25 -29 20 -72 -6
-38 -4 -49 9 -54 9 -3 21 -1 27 5 16 16 -9 106 -38 133 -34 32 -33 75 3 84 22
5 33 0 64 -32 l37 -38 3 -95 c3 -111 -3 -130 -40 -130 -59 0 -72 -61 -18 -84
l32 -14 -30 -1 c-37 -1 -55 -17 -55 -48 0 -15 9 -27 25 -35 21 -9 28 -8 46 8
11 10 18 26 16 35 -3 11 16 38 54 75 l59 58 0 132 0 132 -55 48 c-31 26 -58
58 -62 73 -11 50 -31 62 -57 35z m98 -115 l56 -51 0 -122 0 -122 -34 -33 c-33
-32 -33 -32 -39 -10 -4 14 0 30 8 39 11 12 15 44 15 124 l0 107 -50 53 c-27
29 -50 56 -50 59 0 22 46 0 94 -44z m-38 -330 c3 -6 0 -17 -7 -25 -18 -17 -44
-2 -36 20 7 18 33 21 43 5z"/>
<path d="M2459 5434 c-16 -20 -1 -48 28 -52 12 -2 39 -19 62 -38 l41 -36 0
-136 0 -137 -116 -122 c-105 -111 -119 -123 -150 -123 -31 0 -37 -4 -51 -37
-8 -21 -21 -45 -28 -53 -8 -8 -15 -33 -17 -54 -3 -35 -6 -39 -31 -41 -34 -1
-49 -21 -42 -53 4 -15 2 -21 -5 -17 -6 4 -10 49 -10 109 0 87 3 105 18 119 10
10 23 17 29 17 6 0 16 7 23 16 11 12 11 18 -2 30 -17 17 -48 9 -48 -14 0 -9
-10 -26 -21 -38 -19 -21 -21 -33 -20 -131 2 -105 3 -109 32 -138 16 -17 29
-41 29 -53 0 -32 37 -48 61 -26 10 9 19 22 19 29 0 19 -36 46 -52 40 -8 -3
-21 1 -28 10 -11 13 -9 15 13 15 36 0 45 17 53 95 8 83 17 98 54 90 31 -7 60
15 60 44 0 9 59 78 131 154 l130 137 -7 140 -7 141 -43 36 c-24 19 -44 43 -44
52 0 37 -38 53 -61 25z"/>
<path d="M2649 5419 c-9 -18 -7 -27 10 -50 20 -27 21 -40 21 -245 0 -205 -1
-219 -20 -239 -23 -24 -18 -50 11 -66 43 -22 78 32 45 70 -10 12 -15 72 -19
243 -5 192 -4 228 8 238 29 24 11 70 -27 70 -9 0 -22 -10 -29 -21z m67 -550
c3 -6 -1 -18 -10 -27 -15 -15 -17 -15 -32 0 -19 19 -11 38 16 38 10 0 22 -5
26 -11z"/>
<path d="M2854 5415 c-4 -17 -1 -32 10 -44 9 -10 16 -21 16 -26 0 -5 27 -39
60 -76 33 -37 60 -74 60 -82 0 -41 72 -50 78 -9 5 30 -16 55 -41 48 -14 -3
-36 11 -78 51 -53 50 -76 93 -50 93 16 0 23 40 11 55 -21 25 -59 19 -66 -10z"/>
<path d="M3250 5425 c-23 -27 -6 -54 43 -69 15 -5 17 -19 17 -98 l0 -93 119
-119 c76 -76 121 -129 125 -146 6 -32 29 -44 57 -30 35 19 17 70 -24 70 -10 0
-72 50 -136 112 l-118 111 -5 123 c-5 126 -14 154 -48 154 -10 0 -23 -7 -30
-15z"/>
<path d="M3686 5402 c-8 -25 2 -50 22 -57 10 -3 106 -92 215 -198 l197 -192 0
-202 0 -201 64 -57 c36 -31 66 -66 68 -78 2 -16 10 -22 28 -22 39 0 38 31 -2
48 -18 8 -57 39 -85 70 l-53 56 0 197 0 197 -194 188 c-186 181 -193 190 -192
226 1 36 -1 38 -31 41 -24 2 -33 -1 -37 -16z"/>
<path d="M2150 5359 c-10 -18 -8 -26 9 -50 16 -21 21 -43 21 -89 0 -58 -1 -60
-20 -48 -16 11 -20 24 -20 74 0 69 -23 127 -48 122 -25 -5 -28 -38 -4 -45 36
-9 44 -108 11 -152 -17 -23 -19 -32 -10 -50 12 -22 71 -31 71 -11 0 6 5 10 11
10 7 0 8 -16 3 -45 -4 -30 -2 -50 6 -60 10 -12 -6 -33 -94 -122 l-106 -108 0
-144 0 -144 70 -68 c39 -38 70 -77 70 -87 0 -11 7 -25 16 -33 21 -17 49 0 49
31 0 18 -7 26 -30 32 -17 4 -57 35 -92 70 l-62 63 -2 133 -2 134 71 71 c62 61
72 68 72 49 0 -14 -19 -46 -45 -75 l-45 -52 0 -124 0 -125 80 -82 c44 -45 80
-87 80 -93 0 -7 10 -11 23 -9 29 4 31 42 1 46 -11 2 -52 35 -91 75 l-71 72 -7
112 -7 113 49 50 c29 31 59 53 77 56 40 7 46 12 46 38 0 27 -18 46 -44 46 -18
0 -17 3 9 30 16 17 35 30 42 30 7 0 20 11 29 25 15 23 15 27 0 50 -9 14 -27
27 -41 31 -24 6 -25 9 -25 91 0 69 4 89 19 110 27 34 15 67 -27 71 -23 2 -34
-2 -42 -19z m0 -218 c0 -27 -19 -36 -37 -18 -18 18 -9 37 18 37 12 0 19 -7 19
-19z"/>
<path d="M3827 5353 c-14 -13 -6 -53 12 -62 10 -6 21 -7 25 -4 9 10 66 -48 66
-68 0 -10 12 -21 30 -27 16 -6 72 -53 125 -104 l95 -93 0 -195 0 -195 55 -55
c30 -29 55 -61 55 -70 0 -39 52 -54 70 -21 5 11 10 22 10 25 0 13 -34 36 -54
36 -13 0 -40 19 -68 48 l-46 47 -5 200 -6 200 -101 93 c-64 60 -100 101 -100
114 0 17 10 12 54 -31 35 -32 64 -51 79 -51 13 0 32 -9 43 -21 13 -14 26 -19
45 -15 21 4 35 -5 82 -52 32 -33 57 -67 57 -78 0 -24 29 -54 53 -54 24 0 26
-40 30 -496 l3 -412 -22 15 c-43 28 -88 -24 -49 -57 12 -10 15 -43 15 -181 0
-98 -4 -169 -9 -169 -16 0 -23 -40 -11 -55 7 -8 23 -15 36 -15 32 0 44 43 19
70 -11 12 -13 20 -7 20 7 0 12 -4 12 -9 0 -13 35 -20 54 -9 20 11 21 42 2 61
-14 14 -17 119 -30 1081 -4 271 -4 271 -61 261 -26 -4 -38 3 -83 46 -39 38
-51 56 -47 70 9 27 -36 70 -65 62 -12 -3 -27 -14 -33 -24 -7 -11 -21 -19 -32
-19 -25 0 -155 128 -155 152 0 20 -36 33 -53 19 -9 -7 -16 -5 -25 10 -12 18
-52 26 -65 12z m138 -83 c3 -5 -3 -10 -14 -10 -11 0 -23 5 -26 10 -3 6 3 10
14 10 11 0 23 -4 26 -10z m464 -1586 c-6 -8 -15 -14 -20 -14 -5 0 -9 64 -9
142 0 121 3 144 18 161 16 18 17 13 20 -128 2 -100 -1 -152 -9 -161z"/>
<path d="M1949 5264 c-17 -20 -1 -46 32 -54 23 -6 24 -9 27 -109 l3 -103 -162
-163 c-89 -90 -171 -165 -183 -167 -36 -7 -46 38 -46 212 0 131 3 156 17 172
22 24 7 53 -27 53 -34 0 -48 -29 -26 -54 16 -17 17 -39 15 -208 -2 -162 0
-188 13 -191 8 -2 20 -14 26 -27 19 -41 72 -27 72 19 0 12 63 84 161 183 l161
164 -4 128 c-4 133 -12 161 -48 161 -10 0 -23 -7 -31 -16z"/>
<path d="M1900 5230 c-7 -5 -28 -6 -46 -3 -26 4 -33 2 -39 -16 -4 -12 0 -30 9
-43 11 -16 16 -46 16 -98 l0 -76 -48 -47 c-26 -26 -56 -47 -65 -47 -24 0 -33
-28 -15 -46 18 -19 45 -9 54 19 4 12 27 44 52 71 l45 48 -6 77 c-6 65 -4 79
12 99 12 13 25 20 35 16 13 -5 16 -23 16 -90 l0 -83 -116 -120 c-65 -68 -125
-121 -137 -123 -28 -4 -37 -55 -11 -65 23 -8 49 10 49 34 0 13 47 70 118 144
l117 123 0 112 c0 114 -7 134 -40 114z"/>
<path d="M1697 5189 c-18 -10 -23 -44 -8 -53 14 -9 22 -96 11 -117 -6 -10 -19
-19 -29 -19 -28 0 -47 -28 -34 -48 5 -10 18 -19 28 -21 21 -4 46 24 39 43 -3
7 2 19 11 26 10 8 15 30 15 66 0 29 5 56 10 59 6 3 10 17 10 30 0 29 -28 47
-53 34z"/>
<path d="M2733 5044 c-3 -9 -1 -25 5 -35 7 -10 12 -57 12 -104 l0 -85 -65 -69
-65 -68 0 -115 c0 -91 -3 -118 -15 -128 -23 -19 -22 216 1 241 20 23 12 65
-15 74 -47 15 -79 -39 -45 -76 17 -19 19 -43 22 -243 l3 -221 -115 -115 -115
-114 5 -476 6 -475 -108 -107 -109 -107 -570 -6 c-505 -5 -572 -4 -589 9 -11
9 -17 18 -14 21 3 4 264 10 579 15 l573 9 98 98 98 98 0 245 0 246 -30 29
c-34 32 -43 95 -15 95 47 0 85 91 50 120 -12 10 -15 36 -15 113 l0 100 68 71
c37 39 72 73 77 75 6 2 17 10 26 18 15 13 16 41 12 274 -5 235 -4 262 12 279
32 35 -4 82 -46 60 -23 -13 -25 -37 -4 -60 11 -13 16 -64 21 -243 l7 -227 -31
0 c-32 0 -62 -22 -62 -45 0 -8 5 -26 12 -40 10 -23 7 -29 -50 -89 l-62 -64 0
-96 0 -96 -30 0 c-66 0 -95 -83 -45 -130 17 -16 25 -34 25 -57 0 -26 8 -41 30
-60 l30 -25 0 -241 -1 -242 -90 -92 -90 -93 -97 1 c-66 0 -90 3 -75 9 40 16
39 66 -1 100 -9 7 -16 28 -16 49 0 32 11 47 85 124 93 95 118 105 164 67 19
-17 21 -23 11 -35 -7 -9 -10 -27 -7 -44 5 -23 -1 -34 -31 -65 -43 -41 -81 -47
-112 -16 -25 25 -32 25 -60 2 -18 -14 -21 -25 -16 -45 9 -37 50 -46 80 -18 12
12 35 21 52 21 22 0 41 11 69 40 23 24 48 40 62 40 26 0 63 32 63 55 0 17 -35
55 -50 55 -6 0 -5 10 2 25 9 20 8 28 -5 43 -23 26 -24 140 -1 149 8 3 20 17
25 30 20 54 -42 94 -85 54 l-23 -22 -7 257 -7 256 58 63 c32 34 63 63 70 64
30 3 63 26 74 53 10 25 9 33 -10 58 -16 23 -21 43 -21 95 0 61 1 65 23 65 48
0 61 44 27 87 -39 50 -21 123 31 123 22 0 32 6 41 25 10 22 9 29 -10 47 -18
19 -25 20 -47 10 -18 -8 -25 -19 -25 -39 0 -16 -7 -37 -15 -47 -8 -11 -15 -39
-15 -61 0 -28 -6 -47 -18 -59 -17 -14 -18 -28 -14 -116 5 -97 4 -100 -17 -100
-51 0 -79 -73 -44 -112 16 -18 14 -22 -47 -83 l-63 -64 7 -314 7 -315 -177
-181 -177 -181 -70 0 c-51 0 -75 4 -88 16 -26 23 -70 21 -87 -5 -13 -19 -24
-21 -107 -21 -70 0 -96 4 -105 15 -7 8 -23 15 -35 15 -12 0 -28 -7 -35 -15
-10 -12 -37 -15 -119 -15 -64 0 -111 4 -118 11 -6 6 -21 9 -34 7 -18 -2 -24
-9 -24 -27 0 -37 26 -47 68 -28 24 12 61 17 119 17 72 0 88 -3 103 -20 10 -11
26 -20 37 -20 10 0 26 9 35 20 15 17 30 20 109 20 78 0 93 -3 109 -20 23 -26
60 -26 82 0 14 17 30 20 88 20 l70 -1 188 193 c186 191 187 193 187 237 l0 44
25 -23 c21 -19 25 -33 25 -78 0 -46 -4 -59 -26 -78 -14 -13 -37 -24 -52 -24
-21 0 -48 -21 -120 -93 -89 -90 -92 -94 -92 -138 0 -33 -6 -51 -20 -64 -26
-23 -26 -60 1 -78 11 -8 17 -17 12 -20 -4 -3 -223 -7 -485 -8 -361 -3 -478 -7
-478 -16 0 -6 5 -15 11 -19 8 -5 6 -10 -5 -16 -20 -11 -21 -42 0 -59 13 -10
21 -10 47 3 28 14 94 17 470 21 327 4 437 2 434 -7 -2 -6 -14 -13 -28 -14 -13
-2 -33 -12 -44 -22 -11 -10 -31 -20 -45 -22 -33 -4 -40 -42 -10 -58 25 -13 50
1 50 29 0 37 42 52 79 29 39 -24 77 18 46 52 -18 20 -17 20 96 20 l114 0 114
114 114 115 -2 353 c0 194 -4 406 -8 470 l-6 118 117 120 116 121 0 86 c0 85
0 85 24 79 14 -3 32 -3 40 0 20 8 21 48 1 64 -12 10 -15 37 -15 124 l0 112 65
71 65 71 0 91 c0 50 4 91 9 91 13 0 21 27 15 45 -8 20 -53 19 -61 -1z m-135
-333 c-2 -9 -11 -17 -21 -19 -21 -4 -35 27 -17 38 19 12 42 0 38 -19z m-253
-246 c0 -22 -31 -33 -47 -17 -17 17 -1 44 24 40 15 -2 23 -10 23 -23z m114
-239 c17 -20 2 -46 -25 -46 -29 0 -41 24 -24 45 16 19 34 19 49 1z m-171 -438
c36 -36 -11 -93 -57 -69 -39 21 -21 81 24 81 12 0 26 -5 33 -12z m-60 -291 c3
-23 0 -27 -23 -27 -30 0 -43 24 -25 46 19 22 45 13 48 -19z m27 -315 c4 -10
-1 -22 -12 -29 -21 -16 -33 -13 -47 11 -9 13 -7 20 7 31 22 16 43 11 52 -13z
m-665 -137 c15 -18 7 -43 -16 -52 -11 -4 -22 1 -30 12 -12 16 -11 21 3 37 20
22 27 22 43 3z m334 -71 c19 -7 21 -50 4 -57 -18 -6 -48 11 -48 26 0 7 5 18
12 25 14 14 12 14 32 6z"/>
<path d="M1523 5044 c-15 -7 -17 -50 -3 -59 6 -3 10 -37 10 -74 0 -73 -19
-128 -37 -110 -8 8 -17 8 -31 0 -11 -6 -32 -11 -45 -11 -13 0 -31 -8 -41 -19
-10 -11 -25 -16 -40 -14 -33 7 -70 -31 -62 -62 8 -31 -17 -53 -39 -35 -14 12
-13 15 5 32 11 10 20 27 20 36 0 10 24 41 53 70 43 43 59 52 88 52 19 0 40 -5
46 -11 6 -6 21 -9 34 -7 18 2 24 9 24 27 0 34 -29 50 -53 28 -10 -10 -35 -17
-56 -17 -32 0 -46 -8 -94 -54 -31 -29 -69 -56 -83 -60 -32 -7 -43 -30 -28 -57
7 -15 6 -23 -6 -35 -18 -18 -18 -20 -5 -45 12 -22 33 -25 52 -6 23 22 70 42
90 39 29 -5 60 27 56 59 -5 47 48 79 79 48 7 -7 19 -8 30 -3 10 4 34 8 53 9
29 0 36 4 38 23 2 13 -1 29 -6 35 -16 18 -18 143 -3 161 18 22 10 61 -14 63
-11 1 -26 -1 -32 -3z m-169 -327 c13 -21 -13 -51 -36 -42 -24 10 -29 32 -11
50 18 18 32 16 47 -8z"/>
<path d="M2817 5023 c-11 -10 -8 -51 3 -58 6 -3 10 -45 10 -92 l0 -85 -65 -73
-65 -72 0 -122 c0 -74 -4 -121 -10 -121 -16 0 -12 -46 5 -60 12 -10 21 -10 41
-1 14 6 23 7 20 2 -3 -5 2 -19 12 -31 13 -16 24 -21 40 -16 28 9 38 43 19 64
-10 12 -16 51 -20 131 l-5 113 71 74 70 74 -6 84 c-4 63 -3 87 7 95 10 8 17 6
29 -7 24 -26 27 -434 3 -460 -8 -10 -14 -29 -13 -43 2 -20 -41 -69 -230 -264
l-233 -239 0 -127 c0 -121 -1 -128 -21 -134 -11 -4 -26 -20 -33 -37 -12 -27
-13 -19 -19 84 -4 62 -7 145 -7 183 0 69 1 72 38 108 21 20 47 37 58 37 25 0
44 18 44 43 0 30 78 117 105 117 29 0 48 23 40 49 -14 44 -75 33 -75 -13 0
-29 -75 -108 -114 -121 -22 -7 -32 -17 -34 -35 -2 -14 -22 -44 -44 -66 l-39
-41 6 -489 7 -489 -74 -77 c-61 -64 -77 -76 -98 -72 -29 6 -55 -12 -65 -43 -4
-17 0 -29 18 -47 23 -23 25 -35 32 -154 7 -130 7 -130 -16 -143 -59 -31 -64
-77 -15 -124 l34 -32 7 -466 c5 -303 11 -467 18 -467 7 0 8 156 5 467 l-6 467
29 27 c21 20 29 36 29 61 0 34 -24 68 -48 68 -9 0 -12 39 -12 139 0 111 3 141
15 151 8 7 15 29 15 49 0 31 10 45 76 112 l77 77 -2 304 c-1 273 1 300 14 276
8 -15 23 -29 33 -33 16 -4 20 -20 26 -97 3 -50 6 -164 6 -252 0 -157 -1 -162
-22 -171 -35 -16 -54 -58 -42 -92 10 -26 7 -32 -59 -100 l-69 -73 6 -252 c3
-139 9 -450 12 -690 4 -279 10 -438 16 -438 7 0 8 107 4 307 -3 170 -9 478
-12 687 l-6 378 68 69 c63 63 71 69 101 63 64 -12 111 78 64 125 -10 10 -23
20 -28 22 -6 2 -12 106 -16 251 l-6 248 22 11 c12 6 29 20 38 31 15 19 17 -6
23 -322 l8 -343 -98 -98 -97 -97 7 -489 c3 -268 7 -566 7 -660 1 -155 7 -201
23 -175 3 5 0 302 -5 661 l-10 654 95 97 96 97 -7 491 -6 491 140 142 c138
140 140 141 140 108 0 -30 -15 -50 -118 -159 l-119 -125 7 -520 6 -521 -26
-17 c-55 -36 -25 -117 44 -117 58 0 81 81 33 119 -32 25 -32 27 -38 605 l-5
450 116 118 c84 85 124 118 141 118 42 0 62 18 62 55 0 29 12 47 86 124 61 64
93 91 110 91 33 0 50 34 31 63 -18 28 -34 471 -18 482 17 10 13 42 -6 49 -9 4
-19 3 -23 -1 -4 -4 -3 -120 1 -258 7 -216 7 -252 -6 -261 -8 -6 -15 -22 -15
-35 0 -16 -28 -54 -85 -116 -77 -83 -88 -91 -120 -90 -19 1 -35 2 -35 4 0 2
43 47 95 101 l95 97 0 243 c0 133 4 242 8 242 17 0 33 50 22 70 -15 29 -57 36
-80 15 -28 -25 -25 -61 5 -81 l25 -16 0 -231 0 -230 -57 -61 c-31 -34 -141
-147 -245 -253 l-188 -191 0 -134 c0 -128 -1 -132 -18 -112 -9 12 -27 27 -39
33 -22 11 -23 17 -23 131 l0 119 232 238 c127 131 238 240 247 242 26 5 41 22
41 46 0 13 -6 25 -12 27 -10 4 -14 60 -16 226 -4 196 -2 223 12 228 20 8 21
48 1 64 -12 10 -21 10 -41 2 -18 -9 -29 -9 -43 0 -41 25 -67 -15 -36 -56 10
-13 15 -44 15 -94 l0 -74 -70 -78 -70 -78 0 -114 c0 -63 -3 -117 -6 -121 -4
-3 -17 10 -30 29 -22 31 -24 46 -24 140 l0 106 71 71 71 72 -5 80 c-4 62 -2
86 11 107 13 22 13 29 3 42 -14 16 -42 21 -54 9z m307 -115 c8 -14 7 -21 -6
-34 -30 -30 -75 9 -48 42 16 18 39 15 54 -8z m-149 -792 c0 -29 -31 -44 -50
-25 -23 23 -9 51 24 47 18 -2 26 -9 26 -22z m-427 -498 c36 -36 -11 -93 -57
-69 -39 21 -21 81 24 81 12 0 26 -5 33 -12z m170 -880 c32 -32 -18 -87 -53
-58 -15 13 -20 51 -8 63 11 11 48 8 61 -5z m-443 -332 c22 -33 5 -66 -33 -66
-49 0 -67 37 -35 72 22 25 50 23 68 -6z"/>
<path d="M4217 5013 c-11 -10 -8 -61 3 -68 6 -4 10 -60 10 -136 0 -122 2 -132
24 -162 13 -18 26 -43 28 -57 5 -41 78 -36 78 6 0 20 -29 44 -54 44 -47 0 -56
26 -56 167 0 104 3 133 15 143 18 15 19 42 3 58 -13 13 -41 16 -51 5z"/>
<path d="M4472 4958 c-16 -16 -15 -38 2 -57 11 -13 15 -120 20 -548 4 -317 3
-533 -3 -533 -15 0 -22 -30 -11 -51 13 -24 58 -25 67 -2 6 15 7 14 14 -3 4
-11 1 -28 -8 -42 -21 -34 -13 -66 18 -70 15 -2 31 4 39 13 12 14 11 21 -3 48
-13 26 -17 78 -23 260 -4 146 -3 227 3 227 6 0 17 -8 26 -18 24 -27 25 -277 1
-303 -31 -34 6 -80 47 -59 22 12 25 37 5 59 -9 11 -15 59 -19 153 l-6 136 24
16 c33 21 32 59 0 84 l-25 20 0 235 c0 200 2 236 15 247 20 16 16 49 -7 64
-37 23 -77 -36 -43 -64 13 -11 15 -48 15 -254 0 -224 -1 -242 -19 -253 -17
-11 -18 -1 -23 275 -5 269 -5 288 13 310 28 36 7 69 -38 63 -8 -1 -13 9 -13
22 0 34 -43 50 -68 25z m55 -72 c-3 -7 1 -23 9 -34 11 -17 15 -115 20 -539 l6
-518 -20 20 c-19 19 -20 37 -27 553 -5 405 -4 532 5 532 7 0 10 -6 7 -14z
m131 -638 c18 -18 15 -36 -7 -48 -15 -7 -23 -6 -35 6 -12 12 -13 20 -6 35 12
22 30 25 48 7z"/>
<path d="M3572 4841 c-35 -6 -51 -17 -93 -64 -28 -31 -59 -57 -69 -57 -11 0
-24 -8 -29 -17 -8 -14 -10 -10 -11 23 0 22 5 45 12 52 10 10 9 16 -4 28 -24
24 -53 11 -42 -19 4 -12 10 -159 14 -327 l6 -305 -35 -38 c-31 -32 -39 -36
-68 -31 -26 5 -37 1 -57 -20 -15 -14 -26 -36 -26 -49 0 -23 33 -67 50 -67 6 0
10 -13 10 -28 0 -37 -61 -98 -94 -94 -31 4 -56 -22 -56 -58 0 -22 -5 -29 -21
-32 -30 -4 -47 -33 -33 -55 24 -38 74 -22 74 22 0 18 4 22 20 18 30 -8 60 24
60 62 0 22 10 40 35 65 23 22 35 43 35 61 0 17 12 39 31 59 26 26 30 36 25 62
-5 27 -1 37 29 68 l36 37 -1 273 c0 243 1 272 15 260 17 -14 45 -7 45 12 1 7
27 41 58 74 l57 62 110 5 110 5 86 -85 c62 -60 85 -90 82 -103 -7 -25 34 -52
59 -39 29 15 21 63 -12 67 -14 2 -64 42 -118 93 l-94 89 -77 -1 c-42 -1 -95
-5 -119 -8z m-428 -1037 c20 -8 21 -38 1 -54 -12 -10 -18 -10 -30 0 -18 15
-20 46 -2 53 6 3 13 6 14 6 1 1 8 -2 17 -5z"/>
<path d="M4292 4804 c-43 -30 -13 -99 40 -93 44 6 48 -4 48 -140 l0 -127 -30
-29 c-29 -27 -30 -33 -30 -110 0 -79 -1 -82 -30 -103 -23 -18 -30 -30 -30 -57
0 -18 4 -36 8 -39 5 -3 12 -121 15 -263 6 -225 5 -259 -9 -274 -19 -21 -15
-48 9 -63 36 -23 73 29 44 62 -12 14 -16 63 -18 261 l-4 245 28 7 c42 11 57
28 57 64 0 24 -7 39 -25 53 -23 18 -25 27 -25 97 0 72 2 80 30 112 l30 34 0
133 c0 100 -3 136 -14 145 -7 6 -11 22 -9 35 3 16 -2 31 -16 45 -25 25 -39 26
-69 5z m61 -26 c6 -18 -11 -48 -27 -48 -20 0 -37 25 -30 44 7 19 50 22 57 4z
m-3 -608 c28 -28 11 -63 -27 -58 -38 4 -52 32 -29 57 24 26 31 26 56 1z"/>
<path d="M3232 4778 c-21 -21 -14 -66 13 -84 l25 -17 -2 -206 -3 -206 -30 -1
c-25 -1 -63 -36 -247 -225 l-217 -224 -1 -253 0 -253 58 -61 c40 -42 50 -59
35 -54 -29 9 -79 -17 -86 -45 -8 -31 9 -68 38 -81 25 -11 25 -13 25 -130 0
-106 -2 -122 -21 -148 -21 -28 -21 -30 -5 -54 22 -34 60 -34 81 -2 17 26 11
50 -19 76 -13 10 -16 36 -16 129 0 114 1 118 26 140 21 18 25 30 22 57 -4 38
2 42 24 17 22 -25 36 -350 17 -381 -12 -19 -11 -24 4 -39 16 -16 18 -16 34 0
16 16 16 20 3 40 -11 17 -16 63 -18 193 l-4 171 -89 89 -89 89 0 72 c0 40 3
73 6 73 15 0 34 -32 34 -57 0 -19 10 -39 29 -57 16 -16 27 -35 24 -42 -8 -22
25 -64 51 -64 43 0 73 59 44 88 -7 7 -28 12 -48 12 -61 0 -104 67 -65 100 8 7
15 23 15 35 0 12 -7 28 -15 35 -19 16 -20 93 -1 109 12 10 13 9 9 -7 -9 -35
14 -62 52 -62 36 0 59 25 53 58 -1 9 5 28 15 42 12 18 17 44 17 99 0 55 4 79
17 93 22 25 3 71 -29 66 -35 -5 -45 -33 -25 -67 26 -45 19 -135 -8 -91 -15 25
-71 -9 -61 -37 3 -8 -12 -33 -34 -57 -34 -37 -40 -50 -40 -87 -1 -40 -17 -79
-34 -79 -3 0 -6 71 -6 158 l0 157 184 190 c148 153 183 184 178 161 -3 -19
-51 -76 -148 -177 -147 -153 -164 -180 -128 -210 32 -27 72 33 44 66 -18 22
229 278 274 285 27 4 31 9 31 35 0 20 -7 33 -22 41 l-23 11 23 21 c14 13 36
22 55 22 l32 0 0 215 c0 205 1 217 21 245 21 28 21 30 5 54 -18 28 -63 35 -84
14z m68 -23 c15 -18 -2 -45 -30 -45 -23 0 -34 28 -19 46 15 18 33 18 49 -1z
m-310 -1069 c0 -22 -28 -39 -65 -40 -31 -1 -33 0 -18 17 9 9 24 17 34 17 10 0
21 5 24 10 9 15 25 12 25 -4z m-36 -79 c9 -15 7 -21 -8 -32 -35 -26 -74 13
-44 43 16 16 38 12 52 -11z m10 -299 c7 -12 6 -21 -3 -32 -18 -22 -38 -20 -51
3 -7 15 -6 24 6 36 19 18 33 16 48 -7z m-90 -154 c19 -18 19 -20 6 -45 -6 -11
-21 -19 -35 -19 -20 0 -45 24 -45 44 0 10 32 36 45 36 7 0 21 -7 29 -16z"/>
<path d="M1424 4703 c-10 -15 -42 -51 -72 -80 -46 -45 -60 -53 -93 -53 -21 0
-41 5 -44 10 -10 16 -43 12 -54 -7 -21 -39 31 -72 59 -38 7 8 29 15 49 15 31
0 45 8 96 60 48 49 64 59 88 57 33 -2 54 20 44 47 -10 26 -52 20 -73 -11z"/>
<path d="M3545 4700 c-16 -18 -40 -36 -52 -41 -39 -15 -24 -65 15 -52 6 3 12
12 12 22 0 9 15 31 33 49 32 31 36 32 115 32 63 0 82 -3 82 -14 0 -7 6 -19 14
-25 11 -9 18 -8 31 5 15 15 15 18 0 33 -12 12 -41 17 -118 19 l-102 4 -30 -32z"/>
<path d="M1832 4688 c-6 -6 -12 -22 -12 -33 0 -12 -11 -32 -25 -45 -24 -22
-25 -29 -25 -132 l0 -108 34 -37 c18 -21 36 -50 39 -64 7 -29 28 -42 51 -33
36 14 28 61 -13 70 -14 4 -41 20 -58 37 l-33 31 0 102 c0 114 16 150 68 156
23 3 27 8 27 33 0 22 -5 31 -20 33 -11 1 -26 -3 -33 -10z"/>
<path d="M1503 4654 c-8 -22 9 -48 36 -52 17 -3 21 -10 21 -38 0 -19 4 -42 9
-52 5 -9 12 -25 15 -35 12 -38 66 -28 66 14 0 21 -14 31 -44 33 -18 1 -22 9
-28 61 -4 33 -10 66 -13 73 -7 18 -55 15 -62 -4z"/>
<path d="M3742 4628 c-18 -18 -14 -46 7 -58 25 -13 27 -13 46 6 12 13 19 14
28 5 6 -6 18 -11 27 -11 9 0 37 -22 63 -48 l47 -48 0 -110 0 -110 -72 -71
c-58 -56 -79 -71 -102 -71 -57 1 -74 -64 -24 -91 24 -14 28 -14 47 3 12 11 21
31 21 45 0 20 20 46 75 101 l75 74 0 121 0 121 -55 54 c-30 30 -55 60 -55 67
0 19 -28 27 -44 14 -10 -8 -16 -8 -26 4 -15 18 -42 19 -58 3z m66 -564 c4 -27
-26 -40 -46 -20 -21 20 -8 48 20 44 14 -2 24 -11 26 -24z"/>
<path d="M3414 4616 c-3 -9 -3 -23 0 -32 3 -9 -3 -27 -14 -41 -23 -29 -18 -60
11 -81 18 -12 19 -31 19 -279 l0 -265 -144 -147 c-79 -80 -163 -167 -186 -193
-31 -35 -50 -48 -69 -48 -51 0 -69 -50 -31 -85 20 -18 21 -28 19 -363 0 -201
3 -348 8 -353 11 -11 43 -1 43 12 0 6 9 5 21 -1 15 -9 24 -8 35 1 18 15 18 28
-1 49 -12 13 -14 70 -15 337 -1 177 2 329 7 338 5 9 88 94 183 191 111 111
180 172 189 169 7 -3 24 2 37 10 30 19 32 64 4 88 -19 16 -20 29 -20 195 l0
178 48 47 c37 36 55 47 79 47 48 0 70 51 37 84 -36 36 -103 2 -90 -47 4 -19
-4 -33 -44 -72 l-50 -49 0 -187 c0 -173 -1 -187 -20 -204 -12 -10 -20 -31 -20
-48 0 -26 -27 -58 -180 -213 l-180 -184 0 -341 c1 -337 -3 -380 -31 -352 -6 6
-12 127 -16 330 -6 288 -4 323 10 344 10 13 17 35 17 48 0 19 46 71 190 216
l190 191 0 274 c0 264 1 276 20 288 25 15 26 56 2 80 -10 10 -18 31 -18 47 1
33 -30 48 -40 21z m46 -91 c16 -19 6 -45 -18 -45 -29 0 -48 26 -32 45 16 19
34 19 50 0z m200 -70 c15 -19 -3 -45 -31 -45 -23 0 -32 15 -24 40 7 24 37 26
55 5z"/>
<path d="M1894 4608 c-13 -21 -4 -222 11 -238 7 -8 15 -24 17 -35 2 -15 11
-20 33 -20 25 0 31 4 33 27 3 23 -1 28 -25 33 -15 4 -34 8 -40 11 -9 2 -13 28
-13 83 0 70 2 79 20 84 26 7 36 33 20 52 -15 18 -46 20 -56 3z"/>
<path d="M1440 4589 c-9 -16 -8 -24 4 -38 23 -26 20 -46 -14 -79 -16 -17 -30
-40 -30 -52 0 -12 14 -35 30 -50 l30 -28 -1 -124 0 -123 -172 -177 -172 -177
-133 -2 c-72 -1 -135 1 -139 4 -3 4 3 7 13 7 11 0 25 5 31 11 6 6 54 13 107
16 l97 6 164 170 165 169 0 56 c0 30 6 71 12 90 11 30 11 35 -6 47 -10 8 -24
11 -31 9 -8 -4 -15 3 -17 18 -2 18 -9 23 -33 23 -24 0 -31 -5 -33 -23 -2 -12
4 -29 12 -38 11 -11 16 -34 16 -77 l-1 -62 -152 -158 -152 -158 -84 1 c-83 0
-84 0 -66 20 14 15 31 20 69 20 l52 0 142 143 c112 114 142 149 142 171 0 15
7 37 15 50 18 27 11 53 -16 61 -40 13 -66 -38 -34 -65 17 -14 20 -56 5 -65 -5
-3 -7 0 -5 8 3 7 -3 21 -14 31 -19 17 -22 18 -45 2 -14 -9 -41 -16 -59 -16
-19 0 -40 -7 -47 -15 -7 -9 -22 -12 -39 -9 -34 7 -66 -25 -58 -58 13 -49 -63
-79 -105 -41 -24 22 -53 7 -53 -27 0 -34 29 -49 53 -27 10 9 34 17 54 17 22 0
41 7 53 20 12 13 25 18 41 14 28 -7 66 28 62 59 -1 12 1 28 5 35 11 17 75 15
94 -3 9 -10 23 -13 37 -9 11 3 -37 -53 -109 -125 -129 -130 -130 -131 -175
-131 -25 0 -51 5 -57 11 -19 19 -57 6 -63 -21 -4 -19 -11 -25 -30 -25 -18 0
-26 -6 -28 -23 -4 -27 16 -55 34 -48 19 7 25 -46 6 -60 -9 -6 -13 -18 -9 -28
7 -18 32 -22 42 -6 4 6 61 10 139 10 l132 0 179 180 c99 99 183 187 188 196 5
9 7 43 4 75 -3 33 -2 59 2 59 27 0 31 -32 31 -276 l0 -252 -102 -7 c-57 -4
-210 -5 -341 -3 l-239 3 6 -27 c3 -15 1 -30 -4 -33 -17 -11 -11 -44 11 -55 16
-9 24 -8 37 3 14 12 81 16 362 22 190 4 349 9 354 12 5 4 6 145 1 332 -6 292
-5 328 9 340 21 18 20 48 -2 60 -37 19 -70 -27 -40 -57 8 -8 13 -106 16 -335
l5 -324 -344 -5 c-270 -4 -347 -3 -358 7 -33 31 -1 35 297 36 163 1 310 4 326
8 l29 6 -2 267 c-2 178 1 268 8 273 16 9 13 41 -5 56 -12 10 -20 10 -35 1 -27
-17 -29 -16 -29 24 0 27 7 43 30 64 17 15 30 38 30 50 0 12 -13 35 -30 50 -28
26 -41 70 -21 70 16 0 23 40 11 55 -18 21 -48 18 -60 -6z m64 -151 c22 -35
-27 -74 -59 -48 -18 15 -20 56 -2 64 22 9 50 1 61 -16z m-118 -178 c9 -8 14
-32 14 -72 l0 -61 -160 -162 -161 -162 -87 -6 c-65 -5 -90 -3 -102 7 -8 8 -24
16 -35 19 -11 2 27 5 85 6 l105 1 159 166 159 166 -6 68 c-3 37 -3 71 1 75 4
4 8 -2 10 -13 2 -11 10 -26 18 -32z m-317 -104 c17 -20 2 -46 -25 -46 -29 0
-41 24 -24 45 16 19 34 19 49 1z"/>
<path d="M4736 4584 c-20 -19 -20 -33 -1 -58 22 -29 19 -45 -15 -76 -18 -17
-30 -38 -30 -54 0 -26 31 -66 50 -66 6 0 10 -63 10 -169 0 -103 -4 -172 -10
-176 -5 -3 -10 -17 -10 -30 0 -31 32 -50 60 -35 24 13 27 58 5 66 -9 4 -15 19
-15 35 0 29 1 29 24 14 21 -14 25 -14 47 4 l24 19 -22 31 c-28 37 -33 131 -8
151 22 18 19 57 -6 70 -16 9 -24 8 -38 -4 -42 -38 -42 -6 0 41 36 41 34 76 -7
106 -27 21 -31 49 -9 67 21 18 19 57 -4 70 -25 13 -27 13 -45 -6z m74 -414 c0
-46 -5 -71 -14 -79 -12 -10 -15 2 -18 71 -5 92 -3 104 18 87 9 -8 14 -33 14
-79z"/>
<path d="M3757 4544 c-24 -24 7 -82 38 -70 9 3 24 -3 35 -14 17 -17 20 -34 20
-99 0 -83 -6 -96 -49 -103 -32 -4 -50 -32 -35 -55 23 -38 74 -22 74 22 0 12 7
28 15 35 23 19 21 177 -2 202 -10 11 -22 34 -28 51 -7 23 -17 33 -35 35 -14 2
-29 0 -33 -4z"/>
<path d="M1037 4519 c-20 -12 -22 -40 -5 -57 8 -8 52 -12 123 -13 60 -1 100
-4 88 -6 -12 -2 -27 -11 -33 -19 -18 -20 -118 -19 -141 2 -22 20 -49 12 -49
-15 0 -23 25 -34 50 -21 30 16 121 12 141 -6 26 -24 69 -11 69 20 0 18 6 26
21 28 31 4 46 32 30 52 -17 20 -45 21 -61 1 -9 -11 -34 -15 -96 -15 -77 0 -84
2 -84 20 0 25 -30 41 -53 29z"/>
<path d="M3737 4434 c-4 -4 -7 -16 -7 -27 0 -11 -34 -57 -75 -102 l-75 -83 0
-204 0 -203 -183 -183 c-129 -128 -188 -181 -199 -177 -19 8 -48 -20 -48 -46
0 -10 9 -27 20 -36 18 -16 20 -30 20 -154 0 -109 -3 -139 -15 -149 -19 -16
-19 -31 -1 -55 12 -17 18 -18 40 -7 29 13 34 43 11 62 -22 19 -22 280 1 315 9
13 13 29 9 35 -3 5 78 96 180 202 l187 191 -3 201 -3 201 76 78 c72 73 108 96
94 61 -3 -9 -6 -23 -6 -33 0 -9 -30 -50 -66 -90 l-67 -72 7 -190 7 -190 -197
-199 -197 -200 7 -259 c8 -254 7 -260 -13 -280 -26 -26 -27 -53 -1 -76 16 -15
26 -17 48 -9 36 12 43 61 12 89 -19 17 -20 29 -20 279 l0 261 120 120 c91 91
120 115 120 99 0 -12 7 -27 15 -34 11 -9 15 -34 15 -99 0 -74 -3 -88 -19 -98
-18 -11 -19 -8 -23 48 -2 41 1 64 10 72 17 14 11 57 -10 71 -14 8 -22 6 -39
-11 -21 -21 -21 -23 -6 -47 20 -30 24 -67 5 -48 -19 19 -59 15 -65 -8 -3 -13
-13 -19 -27 -17 -16 2 -20 -2 -17 -18 3 -11 6 -137 8 -280 3 -187 0 -266 -8
-282 -9 -17 -9 -26 1 -38 18 -21 41 -19 47 6 4 12 11 18 20 15 39 -15 75 51
38 71 -21 12 -24 476 -2 497 8 8 17 12 21 9 11 -11 7 -443 -5 -465 -13 -25 10
-54 35 -45 18 7 22 42 6 52 -6 4 -10 76 -10 182 0 175 0 176 20 158 18 -16 20
-31 20 -140 0 -97 -3 -125 -15 -135 -21 -17 -19 -36 7 -54 42 -30 83 31 43 64
-12 10 -15 38 -15 130 0 104 2 119 20 135 25 23 25 50 0 75 -14 14 -21 39 -26
93 -6 68 -4 77 16 105 23 31 23 32 5 52 -12 14 -25 18 -39 14 -13 -4 4 21 47
68 l67 75 0 87 c0 56 4 85 10 81 6 -4 10 -57 10 -127 l0 -121 101 -97 c64 -60
100 -101 97 -111 -3 -9 -37 17 -107 85 -55 55 -101 105 -101 112 0 6 -7 17
-15 24 -12 10 -18 10 -30 0 -23 -19 -18 -39 15 -52 47 -21 189 -164 183 -186
-2 -10 2 -24 11 -31 12 -10 18 -9 33 6 22 22 73 27 73 7 0 -23 51 -30 67 -9 7
11 13 22 13 27 0 4 -32 38 -72 75 -40 38 -82 78 -95 90 -21 20 -23 31 -23 125
l0 103 153 157 c101 105 160 158 176 160 32 4 50 32 35 56 -23 36 -74 21 -74
-22 0 -15 -52 -76 -155 -183 l-155 -161 0 -109 0 -109 70 -69 c39 -38 70 -74
70 -79 0 -6 -5 -5 -12 2 -7 7 -19 12 -27 12 -9 0 -60 42 -113 93 l-98 92 0
113 c0 62 5 122 11 133 13 26 -6 52 -32 44 -18 -6 -19 0 -19 82 l0 88 56 63
c37 41 63 62 78 62 44 0 62 47 27 72 -11 8 -21 27 -23 43 -2 24 -9 31 -28 33
-14 2 -29 0 -33 -4z m-316 -1105 c4 -41 7 -151 8 -245 1 -141 -2 -174 -14
-184 -8 -7 -16 -20 -17 -29 -3 -31 -16 256 -17 390 0 75 2 139 6 143 18 17 29
-7 34 -75z m167 5 c4 -27 -26 -40 -46 -20 -21 20 -8 48 20 44 14 -2 24 -11 26
-24z"/>
<path d="M1656 4404 c-20 -19 -20 -23 -2 -43 12 -13 16 -83 22 -358 l7 -342
-67 -69 -66 -69 -157 -6 c-149 -6 -157 -6 -170 13 -18 26 -48 26 -70 0 -16
-18 -30 -20 -143 -20 -92 1 -130 4 -144 15 -29 22 -60 2 -52 -35 3 -19 1 -30
-9 -34 -19 -7 -19 -30 -2 -45 10 -8 17 -7 26 2 9 9 102 13 360 15 304 3 349 1
361 -13 26 -31 66 -12 75 36 6 32 96 121 117 116 24 -7 58 21 58 47 0 13 -9
31 -20 41 -19 17 -20 31 -20 251 0 144 4 235 10 239 16 10 12 43 -7 54 -39 21
-72 -31 -38 -59 13 -10 15 -50 15 -243 0 -200 -2 -233 -16 -249 -10 -10 -17
-29 -18 -42 -1 -14 -21 -46 -47 -74 -36 -39 -52 -49 -68 -45 -14 4 -30 -2 -44
-15 -22 -21 -31 -22 -357 -22 -184 0 -339 0 -345 0 -5 0 1 9 15 20 22 17 41
20 158 20 80 0 132 -4 132 -10 0 -20 50 -23 70 -5 17 15 45 19 177 23 l156 5
75 74 75 73 -7 350 c-4 226 -3 350 3 350 20 0 24 43 5 57 -23 17 -29 16 -48
-3z"/>
<path d="M1140 4381 c-8 -5 -49 -11 -90 -14 -53 -5 -78 -11 -87 -23 -17 -24 1
-54 33 -54 19 0 26 6 31 30 5 28 8 30 52 30 26 0 52 -5 58 -11 18 -18 45 -2
41 23 -3 25 -16 31 -38 19z"/>
<path d="M4191 4362 c-8 -16 -6 -25 9 -45 16 -21 20 -40 20 -109 l0 -83 -19
25 c-17 21 -22 23 -45 12 -18 -8 -26 -19 -26 -38 0 -19 -28 -54 -115 -143
l-115 -118 0 -102 0 -102 69 -65 c58 -55 69 -70 67 -95 -1 -38 25 -60 52 -43
12 9 16 23 14 52 -1 22 2 43 8 47 5 3 10 20 10 37 l0 32 31 -30 c26 -25 30
-34 26 -66 -5 -40 7 -58 26 -39 6 6 19 11 28 11 15 0 17 9 13 73 -2 39 -6 219
-8 399 -4 281 -3 328 10 339 8 7 14 24 12 38 -4 34 -51 43 -67 13z m31 -829
c-8 -23 -22 -13 -22 15 0 17 -10 38 -25 52 -28 26 -32 58 -11 98 25 50 -16 98
-63 73 -28 -16 -35 -48 -17 -76 23 -36 21 -127 -3 -149 -18 -17 -22 -15 -90
50 l-71 66 0 97 0 96 117 118 c64 64 124 117 133 117 10 0 24 7 31 17 12 14
15 -26 20 -273 3 -159 4 -295 1 -301z"/>
<path d="M4131 3981 c-6 -11 -11 -26 -11 -34 0 -7 -11 -24 -25 -37 -18 -17
-25 -34 -25 -62 0 -31 -8 -47 -40 -82 -23 -24 -52 -47 -66 -50 -19 -5 -25 -12
-22 -29 5 -36 34 -33 53 6 8 18 34 51 55 72 32 31 40 46 40 75 0 27 7 43 28
63 16 15 31 25 34 21 4 -3 16 0 28 6 32 17 24 64 -12 68 -18 2 -30 -3 -37 -17z"/>
<path d="M4062 3978 c-7 -7 -12 -20 -12 -29 0 -10 -4 -21 -10 -24 -5 -3 -10
-23 -10 -44 0 -45 -30 -88 -63 -93 -30 -4 -32 -53 -2 -53 12 0 21 8 23 20 2
11 17 34 32 50 20 20 30 43 32 70 2 32 8 42 31 53 30 14 36 46 11 56 -20 8
-18 8 -32 -6z"/>
<path d="M2027 4363 c-12 -11 -8 -46 7 -62 11 -13 15 -101 20 -431 l6 -415
-138 -143 -137 -143 -425 -6 c-419 -6 -425 -6 -443 15 -10 11 -15 22 -10 25 4
3 198 8 430 13 l421 7 133 133 132 132 -6 364 c-5 316 -4 365 10 380 17 19 10
53 -13 62 -33 13 -63 -34 -38 -58 13 -13 17 -53 21 -221 3 -113 3 -205 0 -205
-3 0 -13 7 -21 16 -12 12 -16 37 -16 109 0 52 -4 97 -10 100 -5 3 -10 20 -10
36 0 22 -7 32 -25 41 -34 15 -57 -5 -53 -46 3 -27 8 -32 38 -36 l35 -5 3 -99
c2 -59 -1 -103 -8 -110 -15 -15 -12 -42 5 -56 12 -10 21 -10 40 -2 l25 12 0
-138 0 -137 -126 -127 -126 -128 -234 0 -234 0 22 25 c21 24 25 25 164 25 84
0 145 -4 149 -10 9 -15 41 -12 54 4 9 11 10 20 1 35 -13 25 -42 27 -60 6 -18
-21 -286 -22 -309 -1 -32 28 -78 24 -93 -9 -9 -19 -8 -29 5 -48 l16 -24 -76
-7 c-133 -11 -221 -7 -248 10 -32 21 -65 10 -65 -22 0 -14 7 -27 15 -30 10 -4
12 -15 9 -34 -8 -36 22 -56 52 -36 15 10 121 15 449 20 l430 7 135 141 c74 77
137 146 140 152 3 6 3 199 0 429 -4 328 -2 421 8 429 17 15 15 55 -4 62 -20 8
-39 8 -47 -1z m-737 -1067 c0 -23 -30 -41 -48 -30 -23 15 -25 29 -7 48 12 12
21 13 36 6 10 -6 19 -17 19 -24z"/>
<path d="M1154 4305 c-10 -8 -35 -15 -54 -15 -30 0 -45 -10 -99 -64 -52 -53
-68 -63 -82 -55 -38 20 -72 -20 -43 -52 10 -11 20 -19 24 -19 4 0 45 38 91 85
72 74 87 85 118 85 19 0 42 -7 51 -15 32 -29 70 7 50 46 -13 23 -29 24 -56 4z"/>
<path d="M1803 4214 c-3 -9 0 -26 7 -38 10 -15 15 -73 18 -198 l4 -176 39 -38
c32 -31 39 -45 39 -75 0 -21 -4 -41 -10 -44 -26 -16 -30 -43 -10 -68 33 -42
26 -86 -22 -141 l-43 -47 -471 -6 c-351 -5 -473 -3 -478 5 -12 20 -54 14 -61
-8 -12 -39 35 -66 63 -38 10 10 129 14 484 19 l472 6 48 53 c41 45 48 59 48
93 0 28 7 48 22 64 l22 23 -22 30 c-13 18 -22 44 -22 67 0 30 -8 45 -39 78
l-39 40 -6 169 c-5 147 -4 172 10 187 23 26 14 53 -19 57 -18 2 -29 -2 -34
-14z"/>
<path d="M1398 3989 c-24 -13 -23 -52 2 -74 31 -28 27 -94 -7 -127 -16 -14
-36 -28 -46 -32 -23 -7 -18 -39 6 -44 10 -2 20 5 26 20 5 13 21 34 35 47 22
21 26 33 26 78 0 29 4 53 10 53 5 0 14 9 20 21 9 16 8 26 -5 45 -16 25 -39 30
-67 13z"/>
<path d="M3667 3574 c-11 -12 -8 -44 5 -44 6 0 4 -8 -7 -20 -20 -23 -14 -50
13 -50 29 0 42 -21 42 -71 0 -40 -5 -53 -31 -79 -26 -26 -30 -36 -25 -63 6
-30 2 -37 -38 -73 -41 -36 -44 -44 -37 -70 6 -25 12 -29 42 -29 28 0 36 5 48
30 20 44 52 75 76 75 33 0 65 40 65 83 0 20 -4 39 -10 42 -5 3 -10 38 -10 76
0 66 -2 71 -37 112 -21 23 -43 51 -49 62 -12 21 -35 30 -47 19z m75 -91 c34
-33 38 -42 38 -88 0 -56 -5 -66 -26 -58 -10 3 -14 22 -14 58 0 30 -4 56 -9 60
-12 7 -41 65 -33 65 3 0 23 -17 44 -37z m-42 -313 c-12 -22 -25 -26 -35 -10
-9 15 4 30 26 30 17 0 18 -3 9 -20z"/>
<path d="M2753 3024 c-3 -8 -1 -25 5 -37 6 -13 12 -115 15 -239 l4 -216 -30
-26 c-26 -23 -29 -31 -24 -64 6 -33 3 -41 -35 -79 l-42 -43 2 -262 c3 -367 13
-688 22 -688 5 0 6 212 2 471 l-5 470 38 40 c32 32 46 39 77 39 45 0 78 28 78
65 0 25 -25 58 -50 67 -19 6 -28 430 -10 463 11 20 11 27 0 40 -16 19 -39 19
-47 -1z"/>
<path d="M1002 2758 c-15 -15 -15 -51 0 -66 18 -18 43 -15 63 8 17 19 31 20
198 20 l179 0 74 -71 c40 -40 71 -76 68 -80 -11 -18 -38 -7 -87 36 l-52 45
-156 0 c-127 0 -159 3 -169 15 -29 35 -85 8 -78 -37 2 -17 10 -24 34 -26 19
-2 36 3 44 12 10 13 40 16 170 16 l157 0 47 -50 c25 -27 46 -57 46 -68 0 -10
5 -23 12 -30 7 -7 8 -12 2 -12 -5 0 -30 20 -54 45 l-44 45 -123 0 c-110 0
-125 2 -143 20 -25 25 -42 25 -65 0 -15 -17 -16 -24 -7 -45 13 -29 52 -34 72
-10 10 12 38 15 134 15 l122 0 39 -40 c22 -23 40 -46 41 -53 0 -7 2 -18 2 -25
1 -8 12 -12 30 -10 22 2 27 8 27 32 1 16 7 32 14 34 7 2 16 15 21 28 9 23 13
24 109 24 75 0 101 -4 111 -15 15 -18 51 -20 68 -3 19 19 14 54 -10 71 -22 15
-21 16 28 16 l51 1 8 -140 c6 -120 5 -144 -9 -165 -34 -52 -9 -115 45 -115 16
0 40 -15 67 -43 l42 -43 0 -367 c0 -255 3 -367 11 -367 7 0 10 112 7 375 l-3
374 -38 39 c-58 59 -30 60 30 0 l53 -52 0 -369 c0 -258 3 -368 11 -365 6 2 10
7 10 11 -1 4 -1 171 -1 371 l0 364 -55 53 c-39 37 -55 60 -55 78 0 15 -6 35
-14 46 -8 13 -15 67 -19 157 -6 130 -5 138 13 148 27 15 27 66 0 80 -14 8 -20
21 -20 45 0 35 -1 35 -43 35 -33 0 -49 -6 -66 -24 -12 -13 -36 -26 -52 -30
-22 -4 -29 -11 -29 -29 0 -13 5 -28 12 -35 9 -9 -5 -12 -64 -12 -68 0 -80 3
-107 26 -27 22 -31 31 -25 59 7 37 -14 65 -50 65 -25 0 -56 -28 -56 -52 0 -22
33 -48 61 -48 15 0 38 -14 59 -35 32 -33 37 -35 104 -35 l69 0 -23 -25 c-22
-23 -30 -25 -113 -25 l-89 0 -103 95 -102 95 -185 0 c-153 0 -188 3 -198 15
-15 18 -42 19 -58 3z m658 -23 c17 -21 5 -45 -24 -45 -27 0 -42 26 -25 46 15
18 33 18 49 -1z m380 -34 c0 -17 -4 -33 -10 -36 -15 -9 -12 -61 5 -75 12 -10
15 -39 15 -141 0 -119 -1 -129 -18 -129 -17 0 -20 12 -25 98 -4 53 -7 121 -7
150 l0 52 -46 0 c-41 0 -44 1 -30 16 9 8 16 23 16 32 0 26 41 62 72 62 24 0
28 -4 28 -29z"/>
<path d="M2473 2698 c-21 -28 -22 -37 -3 -60 18 -24 19 -51 26 -544 4 -321 11
-527 17 -539 6 -11 18 -26 29 -33 15 -11 18 -27 18 -90 0 -95 18 -86 22 12 2
44 8 71 16 74 9 3 12 -16 12 -72 0 -54 4 -76 13 -76 9 0 12 31 12 123 0 125
-8 157 -40 157 -21 0 -24 47 -27 471 -2 331 0 409 11 422 16 20 9 45 -15 54
-25 9 -46 -24 -32 -50 16 -31 25 -892 9 -902 -7 -4 -14 -5 -16 -3 -3 2 -8 222
-11 489 -7 444 -6 485 9 498 20 16 22 52 5 69 -16 16 -43 15 -55 0z"/>
</g>
</svg>
