<?xml version="1.0" standalone="no"?>
<!DOCTYPE svg PUBLIC "-//W3C//DTD SVG 20010904//EN"
 "http://www.w3.org/TR/2001/REC-SVG-20010904/DTD/svg10.dtd">
<svg version="1.0" xmlns="http://www.w3.org/2000/svg"
 width="512.000000pt" height="512.000000pt" viewBox="0 0 512.000000 512.000000"
 preserveAspectRatio="xMidYMid meet">

<g transform="translate(0.000000,512.000000) scale(0.100000,-0.100000)"
fill="#000000" stroke="none">
<path d="M1321 4944 c-169 -45 -301 -180 -346 -351 -13 -48 -15 -170 -15 -765
l0 -708 80 0 79 0 3 723 3 722 27 51 c40 76 70 107 140 145 l63 34 1205 0
1205 0 63 -34 c70 -38 100 -69 140 -145 l27 -51 3 -722 3 -723 79 0 80 0 0
708 c0 595 -2 717 -15 765 -45 173 -178 307 -350 352 -86 22 -2391 22 -2474
-1z"/>
<path d="M1440 4400 l0 -80 720 0 720 0 0 80 0 80 -720 0 -720 0 0 -80z"/>
<path d="M3040 4400 l0 -80 320 0 320 0 0 80 0 80 -320 0 -320 0 0 -80z"/>
<path d="M1440 4000 l0 -80 280 0 280 0 0 80 0 80 -280 0 -280 0 0 -80z"/>
<path d="M2160 4000 l0 -80 760 0 760 0 0 80 0 80 -760 0 -760 0 0 -80z"/>
<path d="M1440 3600 l0 -80 640 0 640 0 0 80 0 80 -640 0 -640 0 0 -80z"/>
<path d="M2880 3600 l0 -80 400 0 400 0 0 80 0 80 -400 0 -400 0 0 -80z"/>
<path d="M1440 3200 l0 -80 1120 0 1120 0 0 80 0 80 -1120 0 -1120 0 0 -80z"/>
<path d="M615 2950 c-110 -22 -208 -75 -289 -156 -65 -65 -98 -117 -135 -213
l-26 -66 -3 -1153 -2 -1152 25 -26 25 -25 742 3 743 3 67 32 c93 44 151 100
196 191 l37 76 3 368 3 368 175 0 c172 0 175 0 199 25 14 13 25 34 25 47 0 13
-56 244 -124 513 -91 361 -133 511 -160 569 -31 69 -34 81 -22 95 42 48 60
106 60 191 0 72 -4 93 -26 136 -39 75 -70 107 -140 145 l-63 34 -635 2 c-349
0 -653 -3 -675 -7z m1311 -176 c53 -39 69 -71 69 -134 0 -63 -16 -95 -69 -134
-27 -21 -41 -21 -638 -26 l-610 -5 -19 -24 c-30 -37 -24 -74 21 -126 54 -63
123 -205 107 -221 -2 -3 -33 -9 -68 -15 -266 -43 -405 -348 -258 -567 16 -24
29 -46 29 -50 0 -4 -35 -21 -77 -37 -42 -17 -80 -32 -85 -33 -5 -2 -8 237 -6
545 l3 548 32 67 c17 37 50 87 72 111 44 48 135 101 197 116 22 5 307 9 656 8
606 -2 617 -2 644 -23z m184 -984 l108 -430 -165 0 c-161 0 -164 0 -188 -25
-25 -24 -25 -27 -25 -201 l0 -177 -59 6 c-92 10 -181 49 -278 122 -9 7 -26 -4
-63 -40 -27 -27 -50 -55 -50 -62 0 -16 115 -97 183 -128 61 -28 171 -55 230
-55 l37 0 0 -142 c0 -122 -3 -150 -21 -188 -27 -60 -64 -98 -124 -126 l-50
-24 -662 0 -663 0 0 453 0 454 186 73 c113 45 191 82 200 94 29 42 18 72 -56
151 -114 124 -121 226 -23 327 55 56 103 68 220 54 58 -7 64 -6 88 18 20 21
25 34 25 78 0 72 -24 178 -54 244 l-25 54 507 1 c279 1 518 4 532 8 23 7 27 3
54 -51 18 -37 68 -217 136 -488z"/>
<path d="M1345 1976 c-191 -90 -191 -342 0 -432 29 -14 68 -24 95 -24 54 0
134 36 172 76 68 73 85 173 44 259 -59 125 -193 177 -311 121z m150 -161 c50
-49 15 -135 -55 -135 -19 0 -40 9 -55 25 -16 15 -25 36 -25 55 0 19 9 40 25
55 15 16 36 25 55 25 19 0 40 -9 55 -25z"/>
<path d="M3820 2954 c-156 -27 -238 -53 -354 -112 -210 -107 -384 -296 -475
-516 -28 -69 -271 -1014 -271 -1056 0 -11 11 -32 25 -45 24 -25 27 -25 199
-25 l175 0 3 -368 3 -368 37 -76 c45 -91 103 -147 196 -191 l67 -32 743 -3
742 -3 25 26 26 25 -4 942 c-3 927 -3 944 -24 1023 -85 316 -296 567 -589 698
-119 54 -228 78 -374 82 -69 2 -136 2 -150 -1z m338 -184 c304 -86 522 -303
613 -612 20 -65 23 -103 26 -342 4 -191 2 -266 -6 -262 -11 7 -131 -68 -131
-82 0 -4 32 -54 70 -112 l70 -105 0 -467 0 -468 -80 0 -80 0 0 200 0 200 -80
0 -80 0 0 -200 0 -200 -320 0 -320 0 0 386 0 386 43 59 c23 32 44 58 47 58 3
0 38 -44 78 -98 l72 -98 0 -107 0 -106 80 0 80 0 0 133 0 134 -82 109 c-45 60
-92 123 -105 140 l-23 31 25 33 c24 32 25 41 25 167 l0 133 80 0 80 0 0 -133
0 -134 120 -159 119 -159 1 -107 0 -108 80 0 80 0 0 133 0 134 -120 159 -119
159 -1 108 0 107 95 0 c90 0 98 2 122 26 l25 25 -5 157 c-5 181 -18 239 -80
362 -33 67 -60 103 -127 170 -96 96 -179 149 -295 187 -71 23 -96 26 -215 26
-97 0 -149 -4 -185 -16 l-50 -17 -57 57 c-57 56 -58 58 -35 70 127 70 397 91
565 43z m-480 -394 l242 -249 0 -331 -1 -331 -119 -159 -120 -159 0 -414 0
-413 -102 0 c-87 0 -111 4 -153 24 -96 45 -144 125 -145 239 0 50 3 67 14 67
32 0 156 73 196 116 57 62 99 155 107 237 5 61 4 67 -20 91 -26 25 -29 26
-162 26 l-135 0 0 95 c0 88 -2 98 -25 120 -24 25 -27 25 -188 25 l-165 0 108
431 c113 451 135 515 218 636 43 62 186 207 200 201 5 -1 117 -115 250 -252z
m348 93 c78 -14 207 -77 269 -133 57 -50 55 -55 -22 -81 -29 -9 -53 -22 -53
-29 0 -28 43 -136 54 -136 7 0 46 11 86 25 40 14 74 24 76 22 15 -17 37 -123
41 -199 l6 -98 -202 0 -201 0 0 177 0 176 -130 132 c-71 72 -130 134 -130 137
0 19 120 23 206 7z m-606 -1525 c0 -20 -104 -124 -124 -124 -13 0 -16 13 -16
70 l0 70 70 0 c57 0 70 -3 70 -16z"/>
<path d="M4080 560 l0 -80 80 0 80 0 0 80 0 80 -80 0 -80 0 0 -80z"/>
<path d="M3425 1976 c-60 -28 -97 -66 -124 -126 -37 -82 -18 -184 47 -254 38
-40 118 -76 172 -76 54 0 134 36 172 76 68 73 85 173 44 259 -59 125 -193 177
-311 121z m150 -161 c50 -49 15 -135 -55 -135 -41 0 -80 39 -80 80 0 41 39 80
80 80 19 0 40 -9 55 -25z"/>
<path d="M2585 2695 c-24 -23 -25 -30 -25 -142 l0 -118 -88 88 c-48 48 -92 87
-98 87 -13 0 -104 -92 -104 -106 0 -5 76 -85 168 -177 148 -147 172 -167 201
-167 21 0 41 9 56 25 25 24 25 27 25 200 l0 175 120 0 120 0 0 80 0 80 -175 0
c-173 0 -176 0 -200 -25z"/>
</g>
</svg>
